<svg width="58" height="53" viewBox="0 0 58 53" fill="none" xmlns="http://www.w3.org/2000/svg">
<path d="M28.9092 51.3921C28.9844 51.3254 29.0643 51.2546 29.1487 51.1798C29.7994 50.6026 30.7146 49.7888 31.772 48.8424C33.8879 46.9488 36.5686 44.529 38.8393 42.4143C39.2 42.0782 39.6372 41.6829 40.1348 41.2331C42.435 39.1535 46.0238 35.909 49.2958 31.9569C53.2986 27.122 56.6138 21.4706 56.6138 15.8856C56.6138 7.77727 50.0367 1.20455 41.9183 1.20455C38.0359 1.20455 35.0166 2.60244 32.9554 4.01246C31.9245 4.71765 31.1398 5.42179 30.6168 5.94495C30.3557 6.20613 30.161 6.42099 30.0347 6.56657C29.9716 6.63932 29.9257 6.69464 29.8971 6.72965L29.8675 6.7665L29.8642 6.77061L29.8637 6.77135L29.8632 6.77196L29.8626 6.77277L29.8625 6.77279L28.9092 8.0131L27.9558 6.77279L27.9558 6.77277L27.9552 6.77196L27.9547 6.77135L27.9542 6.77061L27.9509 6.7665L27.9213 6.72965C27.8927 6.69464 27.8468 6.63932 27.7837 6.56657C27.6573 6.42099 27.4627 6.20613 27.2016 5.94495C26.6786 5.42179 25.8939 4.71765 24.863 4.01246C22.8017 2.60244 19.7825 1.20455 15.9001 1.20455C7.78167 1.20455 1.20455 7.77727 1.20455 15.8856C1.20455 21.4706 4.51979 27.122 8.52264 31.9569C11.7946 35.909 15.3834 39.1535 17.6836 41.2331C18.181 41.6827 18.6181 42.0779 18.9788 42.414L28.9092 51.3921ZM28.9092 51.3921C28.834 51.3254 28.7541 51.2546 28.6697 51.1798C28.019 50.6026 27.1038 49.7888 26.0464 48.8424C23.9305 46.9488 21.2498 44.529 18.9791 42.4143L28.9092 51.3921Z" stroke="#B1B1B1" stroke-width="1.2"/>
</svg>
