<svg width="48" height="48" viewBox="0 0 48 48" fill="none" xmlns="http://www.w3.org/2000/svg">
<path d="M45 19H41.28C40.9035 17.7235 40.394 16.4901 39.76 15.32L42.38 12.68C42.6623 12.4044 42.8858 12.0745 43.037 11.7101C43.1883 11.3457 43.2641 10.9545 43.26 10.56C43.263 10.1657 43.1866 9.77478 43.0354 9.41057C42.8843 9.04636 42.6614 8.71629 42.38 8.44L39.56 5.62C39.2828 5.33942 38.9527 5.11665 38.5888 4.96461C38.2249 4.81257 37.8344 4.73428 37.44 4.73428C37.0456 4.73428 36.6551 4.81257 36.2912 4.96461C35.9273 5.11665 35.5972 5.33942 35.32 5.62L32.68 8.26C31.5142 7.6119 30.2799 7.0954 29 6.72V3C29 2.20435 28.6839 1.44129 28.1213 0.87868C27.5587 0.31607 26.7956 0 26 0L22 0C21.2044 0 20.4413 0.31607 19.8787 0.87868C19.3161 1.44129 19 2.20435 19 3V6.72C17.7201 7.0954 16.4858 7.6119 15.32 8.26L12.68 5.62C12.4028 5.33942 12.0727 5.11665 11.7088 4.96461C11.3449 4.81257 10.9544 4.73428 10.56 4.73428C10.1656 4.73428 9.77512 4.81257 9.41121 4.96461C9.04729 5.11665 8.71718 5.33942 8.44 5.62L5.62 8.44C5.33864 8.71629 5.11574 9.04636 4.96456 9.41057C4.81338 9.77478 4.73701 10.1657 4.74 10.56C4.73351 10.9548 4.80828 11.3468 4.95967 11.7115C5.11105 12.0762 5.33582 12.4058 5.62 12.68L8.24 15.32C7.60598 16.4901 7.09653 17.7235 6.72 19H3C2.20435 19 1.44129 19.3161 0.87868 19.8787C0.31607 20.4413 0 21.2044 0 22L0 26C0 26.7956 0.31607 27.5587 0.87868 28.1213C1.44129 28.6839 2.20435 29 3 29H6.72C7.09295 30.2777 7.60256 31.5115 8.24 32.68L5.62 35.32C5.0582 35.8825 4.74264 36.645 4.74264 37.44C4.74264 38.235 5.0582 38.9975 5.62 39.56L8.44 42.38C9.00994 42.9276 9.76964 43.2334 10.56 43.2334C11.3504 43.2334 12.1101 42.9276 12.68 42.38L15.32 39.76C16.4885 40.3974 17.7223 40.907 19 41.28V45C19 45.7957 19.3161 46.5587 19.8787 47.1213C20.4413 47.6839 21.2044 48 22 48H26C26.7956 48 27.5587 47.6839 28.1213 47.1213C28.6839 46.5587 29 45.7957 29 45V41.28C30.2777 40.907 31.5115 40.3974 32.68 39.76L35.32 42.38C35.5972 42.6606 35.9273 42.8833 36.2912 43.0354C36.6551 43.1874 37.0456 43.2657 37.44 43.2657C37.8344 43.2657 38.2249 43.1874 38.5888 43.0354C38.9527 42.8833 39.2828 42.6606 39.56 42.38L42.38 39.56C42.9418 38.9975 43.2574 38.235 43.2574 37.44C43.2574 36.645 42.9418 35.8825 42.38 35.32L39.76 32.68C40.3974 31.5115 40.907 30.2777 41.28 29H45C45.7957 29 46.5587 28.6839 47.1213 28.1213C47.6839 27.5587 48 26.7956 48 26V22C48 21.2044 47.6839 20.4413 47.1213 19.8787C46.5587 19.3161 45.7957 19 45 19ZM24 34C22.0222 34 20.0888 33.4135 18.4443 32.3147C16.7998 31.2159 15.5181 29.6541 14.7612 27.8268C14.0043 25.9996 13.8063 23.9889 14.1921 22.0491C14.578 20.1093 15.5304 18.3275 16.9289 16.9289C18.3275 15.5304 20.1093 14.578 22.0491 14.1921C23.9889 13.8063 25.9996 14.0043 27.8268 14.7612C29.6541 15.5181 31.2159 16.7998 32.3147 18.4443C33.4135 20.0888 34 22.0222 34 24C34 26.6522 32.9464 29.1957 31.0711 31.0711C29.1957 32.9464 26.6522 34 24 34Z" fill="white"/>
</svg>
