<svg width="130" height="130" viewBox="0 0 130 130" fill="none" xmlns="http://www.w3.org/2000/svg">
<path fill-rule="evenodd" clip-rule="evenodd" d="M4.36566 89.7388L28.6194 85.3731L12.6119 103.806L34.4403 93.6194L23.7686 115.448L42.6866 100.41L37.3507 124.179L52.388 104.776L53.3582 129.03L62.5746 106.716L69.3657 130L72.7612 105.746L85.3731 126.604L82.9477 102.351L99.9254 119.813L91.6791 97.0149L112.537 109.142L98.4701 89.2537L122.239 95.5597L103.806 80.0373L128.06 80.5224L106.231 69.8507L130 64.5149L105.746 59.1791L127.575 48.0224L103.321 49.4776L121.269 32.9851L97.985 40.2612L111.567 19.8881L90.7089 32.5L98.9552 9.70149L81.9776 27.1642L83.9179 2.91045L72.2761 24.2537L67.9104 0L61.6045 23.2836L51.903 0.970149L51.4179 25.7089L36.3806 6.30597L42.2015 30.0746L22.7985 15.5224L33.9552 36.8657L11.6418 27.1642L28.1343 45.1119L3.88059 41.7164L24.2537 55.2985L0 57.7239L22.7985 65.4851L0 73.7313L24.2537 75.6716L4.36566 89.7388Z" fill="url(#paint0_linear_1_965)"/>
<defs>
<linearGradient id="paint0_linear_1_965" x1="58.7726" y1="32.7656" x2="76.4248" y2="130.38" gradientUnits="userSpaceOnUse">
<stop stop-color="#FFBF00"/>
<stop offset="1" stop-color="#FF8000"/>
</linearGradient>
</defs>
</svg>
