<svg width="125" height="47" viewBox="0 0 125 47" fill="none" xmlns="http://www.w3.org/2000/svg">
<path opacity="0.3451" fill-rule="evenodd" clip-rule="evenodd" d="M0.626235 25.6187L4.00984 26.1021V25.6187C5.94333 17.4014 13.1939 11.6009 21.8946 11.6009C24.3115 11.6009 26.7283 12.0843 29.1452 13.0511L29.6286 12.5677C34.9457 4.83372 43.6464 0 53.7972 0C64.9147 0 74.5822 5.80047 79.4159 14.9845L79.8993 15.9513H80.3826C81.3494 15.9513 81.8328 15.9513 82.7995 15.9513C89.5667 15.9513 95.8505 18.8515 99.7175 23.6852L101.168 25.6187H101.651C103.584 25.1354 105.035 24.652 106.968 24.652C113.252 24.652 118.569 27.5522 121.953 32.3859L122.919 34.3194C123.403 34.3194 124.37 34.3194 124.853 34.3194C130.17 52.2042 -10.4913 51.2375 0.626235 25.6187Z" fill="white"/>
</svg>
