<svg width="88" height="89" viewBox="0 0 88 89" fill="none" xmlns="http://www.w3.org/2000/svg">
<path fill-rule="evenodd" clip-rule="evenodd" d="M43.518 86.4115C44.9639 86.4115 46.4097 86.4115 47.8556 86.4115C70.9891 84.4837 88.3393 63.7599 86.4115 40.6263C84.4837 17.4928 63.7599 0.142663 40.6264 2.07046C17.4928 3.99825 0.142672 24.722 2.07047 47.8556C3.99826 69.5433 22.3123 85.9295 43.518 86.4115ZM43.518 88.3393C20.8665 87.8573 2.07046 70.9891 0.142665 47.8556C-1.78513 23.7581 16.047 2.07046 40.1444 0.142665C64.2418 -1.78513 85.9295 16.047 87.8573 40.1444C89.7851 64.2418 71.953 85.9295 47.8556 88.3393C46.8917 88.3393 44.9639 88.3393 43.518 88.3393Z" fill="url(#paint0_linear_1_969)"/>
<defs>
<linearGradient id="paint0_linear_1_969" x1="2.31439" y1="72.4254" x2="106.464" y2="2.11649" gradientUnits="userSpaceOnUse">
<stop stop-color="#FFFF00"/>
<stop offset="1" stop-color="#FF8000"/>
</linearGradient>
</defs>
</svg>
