<svg width="154" height="84" viewBox="0 0 154 84" fill="none" xmlns="http://www.w3.org/2000/svg">
<path fill-rule="evenodd" clip-rule="evenodd" d="M58.1132 82.327C63.9245 82.327 69.7359 80.8742 74.0944 77.9685L78.4528 75.0629H79.4214C82.3271 76.5157 86.2013 77.4843 89.5912 77.4843C97.3396 77.4843 104.604 73.1258 107.994 67.3145L109.447 64.4088V63.9245L110.899 63.4403H111.384L114.289 64.4088C115.258 64.4088 116.226 64.8931 117.679 64.8931C122.038 64.8931 125.912 63.4402 128.818 60.5346L131.239 57.6289L132.692 56.6604L135.113 55.2075L137.535 53.2704L139.472 50.8491L139.956 50.3648L140.925 49.8805H141.409L142.862 50.3648C143.346 50.3648 143.83 50.3648 144.314 50.3648C148.673 50.3648 152.063 46.9748 152.063 42.6164C152.063 38.2579 148.673 34.8679 144.314 34.8679H142.862H141.893L140.925 34.3836L139.472 31.9623L137.05 29.0566C134.145 26.6352 130.27 24.6981 125.912 24.6981C124.943 24.6981 124.459 24.6981 123.491 24.6981L121.069 25.1824L120.101 25.6667L119.132 25.1824L117.679 23.2453C113.805 18.8868 108.478 16.4654 102.182 16.4654C101.698 16.4654 100.73 16.4654 100.245 16.4654H99.2767L98.3082 15.9811L97.3396 14.5283L95.4025 11.6226C90.5598 4.84277 82.3271 0.484274 73.1258 0.484274C64.8931 0.484274 57.6289 3.87421 52.3019 9.68553L50.3648 13.5597L49.8805 14.5283L48.912 15.0126L47.9434 14.5283L45.0378 13.5597C44.0692 13.5597 43.1006 13.0755 41.6478 13.0755C34.8679 13.0755 28.5723 17.434 26.151 23.2453L25.1824 25.6667V27.1195L24.2138 27.6038H23.7296H19.8554C9.68555 27.6038 1.45285 35.8365 1.45285 45.522C1.45285 55.2075 9.68555 63.4403 19.8554 63.4403L23.2453 62.956L26.6352 61.9874L27.6038 62.4717C32.9308 74.0943 44.5535 82.327 58.1132 82.327ZM58.1132 83.7799C45.522 83.7799 34.8679 77.4843 28.5723 67.7987L26.6352 63.9245L23.7296 64.8931C22.2767 64.8931 21.3082 65.3774 19.8554 65.3774C8.71699 65.3774 0 56.6604 0 45.522C0 34.8679 9.20127 25.6667 19.8554 25.6667L23.2453 26.1509V25.6667C25.1824 17.434 32.4465 11.6226 41.1635 11.6226C43.5849 11.6226 46.0063 12.1069 48.4277 13.0755L48.912 12.5912C54.239 4.84276 62.956 0 73.1258 0C84.2642 0 93.9497 5.81132 98.7925 15.0126L99.2767 15.9811H99.761C100.73 15.9811 101.214 15.9811 102.182 15.9811C108.962 15.9811 115.258 18.8868 119.132 23.7296L120.585 25.6667H121.069C123.006 25.1824 124.459 24.6981 126.396 24.6981C132.692 24.6981 138.019 27.6038 141.409 32.4465L142.377 34.3836C142.862 34.3836 143.83 34.3836 144.314 34.3836C149.642 34.3836 154 38.7421 154 43.5849C154 48.9119 149.642 52.7862 144.314 52.7862C143.83 52.7862 142.862 52.7862 142.377 52.7862L141.409 51.8176L138.987 54.239C138.019 55.2075 137.05 55.6918 136.082 56.1761L133.66 57.6289L133.176 58.5975C129.786 63.4403 124.459 66.3459 118.164 66.3459C116.711 66.3459 115.742 66.3459 114.289 65.8616L111.384 64.8931L109.931 67.3145C105.572 74.0943 98.3082 78.4528 89.5912 78.4528C86.6855 78.4528 83.7799 77.9686 80.8742 77L79.4214 76.5157L75.0629 79.4214C69.7358 82.3271 63.9245 83.7799 58.1132 83.7799Z" fill="url(#paint0_linear_1_972)"/>
<defs>
<linearGradient id="paint0_linear_1_972" x1="79.8638" y1="-27.3314" x2="76.349" y2="63.1382" gradientUnits="userSpaceOnUse">
<stop stop-color="#86A4AA"/>
<stop offset="1" stop-color="white"/>
</linearGradient>
</defs>
</svg>
