<svg width="99" height="75" viewBox="0 0 99 75" fill="none" xmlns="http://www.w3.org/2000/svg">
<path fill-rule="evenodd" clip-rule="evenodd" d="M51.7743 75.0001C40.6452 75.0001 30.9678 69.1937 25.6452 60.484L23.7097 57.0969L21.2903 57.5807C20.3226 57.5807 18.871 58.0646 17.9033 58.0646C8.22582 58.0646 0 50.3227 0 40.6452C0 31.4517 7.25807 24.1936 15.9678 23.2258H17.4194H20.8065V22.742C22.2581 15.4839 29.0323 10.1613 36.7742 10.1613C39.1936 10.1613 41.1291 10.6452 43.0646 11.6129V11.1291C47.9033 4.35485 55.6452 0 64.8388 0C74.5162 0 83.2259 5.32259 87.5808 13.5484L88.0647 14.5162C88.5485 14.5162 89.5163 14.5162 90.0001 14.5162L98.7098 59.0323L97.7421 61.4517C93.8711 67.2582 87.5808 71.613 79.8388 71.613C76.9356 71.613 74.5162 71.1291 72.0969 70.1614L70.1614 69.1937L66.2904 72.0969C62.9033 73.5485 57.5807 75.0001 51.7743 75.0001Z" fill="#D59701"/>
</svg>
