<svg width="153" height="82" viewBox="0 0 153 82" fill="none" xmlns="http://www.w3.org/2000/svg">
<path fill-rule="evenodd" clip-rule="evenodd" d="M56.9176 82C42.9294 82 31.3529 73.8 26.0471 62.2235L22.6706 63.1882C21.7059 63.1882 20.2588 63.6706 19.2941 63.6706C8.68235 63.6706 0 55.4706 0 44.8588C0 34.7294 8.68235 26.0471 19.2941 26.0471C20.7412 26.0471 21.7059 26.0471 23.1529 26.5294H23.6353V25.0824C25.0824 17.3647 32.3177 11.5765 40.5177 11.5765C42.9294 11.5765 45.3412 12.0588 47.2706 13.0235L48.2353 13.5059L49.2 12.0588C54.0235 4.82353 62.7059 0 72.3529 0C82.9647 0 92.1294 5.78824 96.953 14.4706L97.9176 15.9176H98.8824C99.3647 15.9176 100.329 15.9176 101.294 15.9176C108.529 15.9176 115.282 19.7765 119.141 25.0824V25.5647L120.106 25.0824C121.553 24.6 123.482 24.1176 125.412 24.1176C131.2 24.1176 136.506 27.0118 139.882 31.3529L141.329 33.7647L142.294 33.2824C142.776 33.2824 143.259 33.2824 144.224 33.2824C149.047 33.2824 152.906 37.1412 152.906 41.4824C152.906 46.3059 149.047 49.6824 144.224 49.6824C143.259 49.6824 141.812 49.6824 140.847 49.2H140.365L139.882 49.6824C138.435 51.6118 136.988 53.0588 135.059 54.0235L132.165 55.4706L131.2 57.4C128.306 61.7412 123 64.6353 116.729 64.6353C114.318 64.6353 111.906 64.1529 109.976 63.1882H109.494V63.6706C106.118 71.3882 97.9177 77.1765 88.753 77.1765C84.8941 77.1765 81.0353 76.2118 78.1412 74.2824C72.3529 79.1059 64.6353 82 56.9176 82Z" fill="url(#paint0_linear_1_971)"/>
<defs>
<linearGradient id="paint0_linear_1_971" x1="75.8116" y1="8.86722" x2="75.8116" y2="116.503" gradientUnits="userSpaceOnUse">
<stop stop-color="white"/>
<stop offset="1" stop-color="#86A4AA"/>
</linearGradient>
</defs>
</svg>
