<svg width="113" height="113" viewBox="0 0 113 113" fill="none" xmlns="http://www.w3.org/2000/svg">
<path opacity="0.502" fill-rule="evenodd" clip-rule="evenodd" d="M1.93164 70.9874L23.1796 70.0216L7.24361 84.0259L27.5257 78.231L15.9359 95.6157L33.8035 84.5088L27.0428 104.308L41.53 89.3379L39.5984 110.586L50.2224 92.2353L53.6027 113L59.3976 92.7182L67.6071 112.035L68.09 90.7866L81.1285 107.205L76.2994 86.9234L93.2012 99.479L83.0601 81.1285L102.859 89.3379L88.3721 73.4019L109.137 76.7823L91.7524 65.1925L112.517 63.2609L92.7182 56.0173L112.517 48.7737L91.7524 47.3249L109.137 35.2523L87.8892 38.6326L101.893 22.6967L82.5772 31.389L92.2353 12.5556L75.8165 25.5941L80.1626 5.31198L67.6071 22.2137L66.6412 0.965815L58.4318 20.2821L52.6369 0L49.2566 21.2479L38.6326 2.89744L41.0471 24.1454L26.077 9.17524L33.3206 28.9745L14.9701 18.3505L27.0428 35.7352L6.76071 29.9403L22.6967 43.4617L1.93164 42.9788L20.765 52.154L0 56.9831L20.765 61.3293L1.93164 70.9874Z" fill="#FFBF00"/>
</svg>
